<?xml version="1.0" encoding="UTF-8" standalone="no"?>
<svg
   version="1.1"
   viewBox="0 0 48 48"
   id="svg29"
   sodipodi:docname="audacity.svg"
   inkscape:version="1.1.1 (3bf5ae0d25, 2021-09-20, custom)"
   xmlns:inkscape="http://www.inkscape.org/namespaces/inkscape"
   xmlns:sodipodi="http://sodipodi.sourceforge.net/DTD/sodipodi-0.dtd"
   xmlns="http://www.w3.org/2000/svg"
   xmlns:svg="http://www.w3.org/2000/svg">
  <sodipodi:namedview
     id="namedview31"
     pagecolor="#ffffff"
     bordercolor="#666666"
     borderopacity="1.0"
     inkscape:pageshadow="2"
     inkscape:pageopacity="0.0"
     inkscape:pagecheckerboard="0"
     showgrid="false"
     inkscape:zoom="7.4895833"
     inkscape:cx="-0.73435327"
     inkscape:cy="21.963839"
     inkscape:window-width="1920"
     inkscape:window-height="1011"
     inkscape:window-x="0"
     inkscape:window-y="35"
     inkscape:window-maximized="1"
     inkscape:current-layer="svg29" />
  <defs
     id="defs7">
    <linearGradient
       id="bg"
       x2="0"
       y1="47"
       y2="1"
       gradientUnits="userSpaceOnUse">
      <stop
         style="stop-color:#e88ac6"
         offset="0"
         id="stop2" />
      <stop
         style="stop-color:#eb9bce"
         offset="1"
         id="stop4" />
    </linearGradient>
  </defs>
  <circle
     style="fill:#fdc4ec;fill-opacity:1;stroke:none;stroke-width:6.60128;stroke-linecap:round;stroke-linejoin:round;stroke-miterlimit:4;stroke-dasharray:none;stroke-opacity:1"
     id="path4514"
     cx="24"
     cy="24"
     r="24" />
  <path
     d="m25 12c-4.986 0-9 4.014-9 9l-5 7c0 3.866 3.134 7 7 7v-4.3066l0.875 3.8398 0.875-1.7324 0.875 3.4668 1.375-4.2676 1 6 2-4 1 2 1-5 1 5 1.375-4.9336 1.625 4.9336 1-5v4c3.866 0 7-3.134 7-7-5.19e-4 -3.0952-2.0338-5.8227-5-6.707v-0.29297c0-4.986-4.014-9-9-9zm0 2c3.878 0 7 3.122 7 7l-1 2-0.5 3-1.5-6-0.5 3-1.75-4.0664-0.75 6.0664-2-7-1 6-1-5-1 7-2-5-1 5v-5c0-3.878 3.122-7 7-7z"
     style="opacity:0.28982332"
     id="path19" />
  <path
     d="m16.5 27.5 1.375 6.033 0.875-1.733 0.875 3.467 1.375-4.267 1 6 2-4 1 2 1-5 1 5 1.375-4.933 1.625 4.933 1.5-7.5-1.5-5.5-0.5 3-1.5-6-0.5 3-1.75-4.066-0.75 6.066-2-7-1 6-1-5-1 7-2-5z"
     style="fill:#e9f9ce;fill-opacity:1"
     id="path23" />
  <path
     d="m16.75 27.467 1.25 2.533 0.75-2.533 1.25 4.533 1-4.5 1.5 6 1.5-4.3 0.5 2.8 1.5-5 1.5 4.8 0.6-4.3 2.025 4.3 1.125-4.3-1.25-2-0.5 2-1.5-5.5-0.5 3.5-1.5-4.5-1 6-2-6-1 5-1-5-1 6-1.75-4"
     style="fill:#f3b585;fill-opacity:1"
     id="path25" />
  <path
     d="m24 11c-4.986 0-9 4.014-9 9v0.30273c-2.9628 0.88332-4.9952 3.6056-5 6.6973 0 3.866 3.134 7 7 7v-14c0-3.878 3.122-7 7-7s7 3.122 7 7v14c3.866 0 7-3.134 7-7-5.19e-4 -3.0952-2.0338-5.8227-5-6.707v-0.29297c0-4.986-4.014-9-9-9z"
     style="fill:#9b8dfb;fill-opacity:1"
     id="path27" />
</svg>
