<?xml version="1.0" encoding="UTF-8" standalone="no"?>
<svg
   version="1.1"
   viewBox="0 0 48 48"
   id="svg35"
   sodipodi:docname="darktable.svg"
   inkscape:version="1.1.1 (3bf5ae0d25, 2021-09-20, custom)"
   xmlns:inkscape="http://www.inkscape.org/namespaces/inkscape"
   xmlns:sodipodi="http://sodipodi.sourceforge.net/DTD/sodipodi-0.dtd"
   xmlns="http://www.w3.org/2000/svg"
   xmlns:svg="http://www.w3.org/2000/svg">
  <sodipodi:namedview
     id="namedview37"
     pagecolor="#ffffff"
     bordercolor="#666666"
     borderopacity="1.0"
     inkscape:pageshadow="2"
     inkscape:pageopacity="0.0"
     inkscape:pagecheckerboard="0"
     showgrid="false"
     inkscape:zoom="3.3333333"
     inkscape:cx="4.9500001"
     inkscape:cy="2.7000001"
     inkscape:window-width="1920"
     inkscape:window-height="1011"
     inkscape:window-x="0"
     inkscape:window-y="35"
     inkscape:window-maximized="1"
     inkscape:current-layer="svg35" />
  <defs
     id="defs7">
    <linearGradient
       id="bg"
       x1="1"
       x2="47"
       gradientTransform="rotate(-90,71.2104,22.342058)"
       gradientUnits="userSpaceOnUse">
      <stop
         style="stop-color:#434343"
         offset="0"
         id="stop2" />
      <stop
         style="stop-color:#4d4d4d"
         offset="1"
         id="stop4" />
    </linearGradient>
    <clipPath
       clipPathUnits="userSpaceOnUse"
       id="clipPath5343">
      <path
         style="fill:#7aafff;fill-opacity:1;stroke:none;stroke-width:2.01045942;stroke-linecap:round;stroke-linejoin:round;stroke-miterlimit:4;stroke-dasharray:none;stroke-opacity:1"
         d="m 3.0688351,285.55677 c -1.613568,1.19596 -2.5662181,3.08478 -2.56883509,5.09323 0,3.50701 2.84299219,6.35 6.35000009,6.35 C 10.357008,297 13.2,294.15701 13.2,290.65 c -0.0022,-0.84296 -0.452078,-2.71271 -0.500228,-2.45359 -0.02424,0.84121 -0.571809,2.35322 -0.602031,2.23138 -0.0026,-0.50621 -0.2876,-1.42626 -0.305098,-1.19509 0.02804,1.40695 -1.48374,3.17677 -2.3076623,3.50038 -0.8310457,0.36942 -1.7371637,0.56412 -2.6117267,0.56534 -0.1736918,2e-5 -1.1686519,-0.13807 -1.6443439,-0.70435 -0.826376,-0.89253 -0.00201,-1.09994 0.4625039,-1.27331 0.5055862,-0.18871 1.030887,-0.30969 1.5203212,-0.42013 0.7456988,-0.16826 0.4710618,-0.52626 0.1049028,-0.6289 -0.9266939,-0.25976 -2.044886,0.33543 -2.8654579,0.30593 -0.848406,-0.0291 -0.804618,-1.69621 -0.1405601,-1.76217 0.7394212,-0.0734 1.6665151,-0.51079 1.461779,-0.65673 -0.8303549,-0.61672 -0.9617369,-0.79081 -1.0595549,-1.16418 -0.1480201,-0.565 0.341282,-1.03557 0.05777,-0.96356 -0.2596169,0.08 -0.4110678,0.15641 -0.5988619,0.25715 -0.1672929,0.0897 -0.293814,0.0546 -0.6751841,0.002 -0.3249449,-0.045 -0.3870058,-0.0557 -0.3755009,-0.25673 0.0115,-0.20097 0.07295,-0.52125 -0.05223,-0.47648 z"
         id="path5345"
         inkscape:connector-curvature="0"
         sodipodi:nodetypes="ccscccccccssscscscssscc" />
    </clipPath>
    <clipPath
       clipPathUnits="userSpaceOnUse"
       id="clipPath4543">
      <path
         style="opacity:1;vector-effect:none;fill:#666666;fill-opacity:1;stroke:none;stroke-width:2.11666656;stroke-linecap:round;stroke-linejoin:round;stroke-miterlimit:4;stroke-dasharray:none;stroke-dashoffset:0;stroke-opacity:1"
         d="m 1.7760088,291.5696 c -1.82613339,0.17434 -3.2940315,0.91934 -3.4903996,2.16451 -0.2629054,1.66729 1.5678591,3.34127 4.0891213,3.73893 1.2172084,0.19119 2.434234,0.053 3.3807423,-0.38387 0.7310194,0.5283 1.669357,0.90078 2.6704721,1.06008 2.5212691,0.39771 4.7783381,-0.6315 5.0412801,-2.2988 0.262905,-1.6673 -1.490667,-1.94329 -4.257163,-2.17938 -2.7664958,-0.23609 -3.6163896,-1.68839 -5.7470448,-2.04575 -0.5660191,-0.0893 -1.1380808,-0.10817 -1.6870084,-0.0557 z"
         id="path4545"
         inkscape:connector-curvature="0"
         sodipodi:nodetypes="cccccczcc" />
    </clipPath>
    <linearGradient
       id="bg-3"
       x1="1"
       x2="47"
       gradientTransform="rotate(-90,23.500499,23.999501)"
       gradientUnits="userSpaceOnUse">
      <stop
         style="stop-color:#393939"
         offset="0"
         id="stop890" />
      <stop
         style="stop-color:#424242"
         offset="1"
         id="stop892" />
    </linearGradient>
  </defs>
  <circle
     style="fill:#5a5a5a;fill-opacity:1;stroke:none;stroke-width:6.60128;stroke-linecap:round;stroke-linejoin:round;stroke-miterlimit:4;stroke-dasharray:none;stroke-opacity:1"
     id="path4514"
     cx="24"
     cy="24"
     r="24" />
  <path
     style="vector-effect:none;fill:#cccccc;fill-opacity:1;stroke:none;stroke-width:0.712229;stroke-linecap:round;stroke-linejoin:bevel;stroke-miterlimit:4;stroke-dasharray:none;stroke-dashoffset:15;stroke-opacity:1;paint-order:stroke fill markers"
     id="path4533-7"
     r="1.6866804"
     cy="302.69254"
     cx="9.0659075"
     d="" />
  <path
     style="vector-effect:none;fill:#afe9dd;fill-opacity:1;stroke:none;stroke-width:1.00157;stroke-linecap:round;stroke-linejoin:bevel;stroke-miterlimit:4;stroke-dasharray:none;stroke-dashoffset:15;stroke-opacity:1;paint-order:stroke fill markers"
     id="path4531-9"
     r="4.0322208"
     cy="303.22104"
     cx="-1.3981887"
     d=""
     inkscape:connector-curvature="0" />
  <path
     style="vector-effect:none;fill:#afe9dd;fill-opacity:1;stroke:none;stroke-width:1.00157;stroke-linecap:round;stroke-linejoin:bevel;stroke-miterlimit:4;stroke-dasharray:none;stroke-dashoffset:15;stroke-opacity:1;paint-order:stroke fill markers"
     id="path4531-3-1"
     r="4.0322208"
     cy="302.90338"
     cx="8.8023634"
     d=""
     inkscape:connector-curvature="0" />
  <g
     id="g5015-6-3"
     transform="matrix(2.6725296,2.6725296,-2.6725296,2.6725296,743.1207,-777.35191)"
     style="fill:#666666;fill-opacity:1" />
  <path
     d="m 24.743,9.513 c -4.2684,0.05559 -8.4263,1.8896 -11.297,5.1934 h -0.01953 l 7.1211,8.1641 5.0508,-13.344 C 25.31318,9.51431 25.02746,9.50912 24.7429,9.51283 Z m 2.8379,0.62695 -3.6094,10.152 14.234,-2.3633 c -2.102,-3.992 -5.984,-6.9301 -10.625,-7.7891 z m -15.693,5.9512 c -2.4522,3.7998 -3.0904,8.583 -1.5293,12.965 l 10.729,-1.9863 z m -1.5293,12.965 -0.0059,0.002 0.0078,0.002 c -4.86e-4,-0.0014 -0.0015,-0.0025 -0.002,-0.0039 z m 28.281,-9.1094 c 4.86e-4,0.0014 0.0015,0.0025 0.002,0.0039 l 0.0098,-0.002 z m 0.002,0.0039 -10.729,1.9863 9.1992,10.98 c 2.4562,-3.7958 3.0904,-8.5849 1.5293,-12.967 z m -14.139,2.5488 c -1.1034,0 -2.002,0.89558 -2.002,2 0,1.10442 0.8985,2 2.002,2 1.1034,0 1.998,-0.89558 1.998,-2 0,-1.10442 -0.8946,-2 -1.998,-2 z m 3.9473,3.6445 -5.0508,13.344 c 4.566,0.195 9.0902,-1.6557 12.156,-5.1797 h 0.01562 z m -3.4102,2.5625 -14.242,2.3633 c 2.109,3.996 5.996,6.9341 10.625,7.7891 z"
     style="opacity:0.12494021"
     id="path905" />
  <path
     d="M 26.581,9.141 22.972,19.293 37.206,16.93 C 35.104,12.938 31.222,10 26.581,9.141"
     style="fill:#ffc18e;fill-opacity:1"
     id="path907" />
  <path
     d="m 37.651,18.949 -10.738,1.988 9.199,10.98 c 2.457,-3.797 3.09,-8.586 1.527,-12.969"
     style="fill:#f9f6ae;fill-opacity:1"
     id="path909" />
  <path
     d="M 34.571,33.309 27.45,25.145 22.4,38.489 c 4.566,0.195 9.09,-1.656 12.156,-5.18"
     style="fill:#9fe9a7;fill-opacity:1"
     id="path911" />
  <path
     d="M 20.423,37.86 24.04,27.708 9.798,30.071 c 2.109,3.996 5.996,6.934 10.625,7.789"
     style="fill:#a2f3fb;fill-opacity:1"
     id="path913" />
  <path
     d="M 9.353,28.059 20.087,26.071 10.888,15.091 C 8.435,18.892 7.798,23.677 9.361,28.06"
     style="fill:#fbd0fb;fill-opacity:1"
     id="path915" />
  <path
     d="m 12.427,13.707 7.121,8.164 5.05,-13.344 c -4.563,-0.195 -9.09,1.656 -12.152,5.18"
     style="fill:#ed6e7c;fill-opacity:1"
     id="path917" />
  <path
     d="m 25.501,23.5 c 0,1.1044 -0.89464,2 -1.9981,2 -1.1034,0 -2.0019,-0.89558 -2.0019,-2 0,-1.10442 0.89847,-2 2.0019,-2 1.1034,0 1.9981,0.89558 1.9981,2"
     style="fill:#f9f9f9"
     id="path919" />
</svg>
