<?xml version="1.0" encoding="UTF-8" standalone="no"?>
<!-- Created with Inkscape (http://www.inkscape.org/) -->

<svg
   width="48"
   height="48"
   viewBox="0 0 12.7 12.7"
   version="1.1"
   id="svg8"
   inkscape:version="1.1.1 (3bf5ae0d25, 2021-09-20, custom)"
   sodipodi:docname="endeavouros.svg"
   xmlns:inkscape="http://www.inkscape.org/namespaces/inkscape"
   xmlns:sodipodi="http://sodipodi.sourceforge.net/DTD/sodipodi-0.dtd"
   xmlns="http://www.w3.org/2000/svg"
   xmlns:svg="http://www.w3.org/2000/svg"
   xmlns:rdf="http://www.w3.org/1999/02/22-rdf-syntax-ns#"
   xmlns:cc="http://creativecommons.org/ns#"
   xmlns:dc="http://purl.org/dc/elements/1.1/">
  <defs
     id="defs2">
    <clipPath
       clipPathUnits="userSpaceOnUse"
       id="clipPath5343">
      <path
         style="fill:#7aafff;fill-opacity:1;stroke:none;stroke-width:2.01045942;stroke-linecap:round;stroke-linejoin:round;stroke-miterlimit:4;stroke-dasharray:none;stroke-opacity:1"
         d="m 3.0688351,285.55677 c -1.613568,1.19596 -2.5662181,3.08478 -2.56883509,5.09323 0,3.50701 2.84299219,6.35 6.35000009,6.35 C 10.357008,297 13.2,294.15701 13.2,290.65 c -0.0022,-0.84296 -0.452078,-2.71271 -0.500228,-2.45359 -0.02424,0.84121 -0.571809,2.35322 -0.602031,2.23138 -0.0026,-0.50621 -0.2876,-1.42626 -0.305098,-1.19509 0.02804,1.40695 -1.48374,3.17677 -2.3076623,3.50038 -0.8310457,0.36942 -1.7371637,0.56412 -2.6117267,0.56534 -0.1736918,2e-5 -1.1686519,-0.13807 -1.6443439,-0.70435 -0.826376,-0.89253 -0.00201,-1.09994 0.4625039,-1.27331 0.5055862,-0.18871 1.030887,-0.30969 1.5203212,-0.42013 0.7456988,-0.16826 0.4710618,-0.52626 0.1049028,-0.6289 -0.9266939,-0.25976 -2.044886,0.33543 -2.8654579,0.30593 -0.848406,-0.0291 -0.804618,-1.69621 -0.1405601,-1.76217 0.7394212,-0.0734 1.6665151,-0.51079 1.461779,-0.65673 -0.8303549,-0.61672 -0.9617369,-0.79081 -1.0595549,-1.16418 -0.1480201,-0.565 0.341282,-1.03557 0.05777,-0.96356 -0.2596169,0.08 -0.4110678,0.15641 -0.5988619,0.25715 -0.1672929,0.0897 -0.293814,0.0546 -0.6751841,0.002 -0.3249449,-0.045 -0.3870058,-0.0557 -0.3755009,-0.25673 0.0115,-0.20097 0.07295,-0.52125 -0.05223,-0.47648 z"
         id="path5345"
         inkscape:connector-curvature="0"
         sodipodi:nodetypes="ccscccccccssscscscssscc" />
    </clipPath>
    <clipPath
       clipPathUnits="userSpaceOnUse"
       id="clipPath4543">
      <path
         style="opacity:1;vector-effect:none;fill:#666666;fill-opacity:1;stroke:none;stroke-width:2.11666656;stroke-linecap:round;stroke-linejoin:round;stroke-miterlimit:4;stroke-dasharray:none;stroke-dashoffset:0;stroke-opacity:1"
         d="m 1.7760088,291.5696 c -1.82613339,0.17434 -3.2940315,0.91934 -3.4903996,2.16451 -0.2629054,1.66729 1.5678591,3.34127 4.0891213,3.73893 1.2172084,0.19119 2.434234,0.053 3.3807423,-0.38387 0.7310194,0.5283 1.669357,0.90078 2.6704721,1.06008 2.5212691,0.39771 4.7783381,-0.6315 5.0412801,-2.2988 0.262905,-1.6673 -1.490667,-1.94329 -4.257163,-2.17938 -2.7664958,-0.23609 -3.6163896,-1.68839 -5.7470448,-2.04575 -0.5660191,-0.0893 -1.1380808,-0.10817 -1.6870084,-0.0557 z"
         id="path4545"
         inkscape:connector-curvature="0"
         sodipodi:nodetypes="cccccczcc" />
    </clipPath>
  </defs>
  <sodipodi:namedview
     id="base"
     pagecolor="#ffffff"
     bordercolor="#666666"
     borderopacity="1.0"
     inkscape:pageopacity="0.0"
     inkscape:pageshadow="2"
     inkscape:zoom="7.0989585"
     inkscape:cx="-1.6903888"
     inkscape:cy="17.396918"
     inkscape:document-units="mm"
     inkscape:current-layer="layer1"
     showgrid="false"
     units="px"
     inkscape:window-width="1920"
     inkscape:window-height="1013"
     inkscape:window-x="0"
     inkscape:window-y="35"
     inkscape:window-maximized="1"
     inkscape:pagecheckerboard="0" />
  <metadata
     id="metadata5">
    <rdf:RDF>
      <cc:Work
         rdf:about="">
        <dc:format>image/svg+xml</dc:format>
        <dc:type
           rdf:resource="http://purl.org/dc/dcmitype/StillImage" />
      </cc:Work>
    </rdf:RDF>
  </metadata>
  <g
     inkscape:label="圖層 1"
     inkscape:groupmode="layer"
     id="layer1"
     transform="translate(0,-284.3)">
    <circle
       style="fill:#b2f8f8;fill-opacity:1;stroke:none;stroke-width:1.74659;stroke-linecap:round;stroke-linejoin:round;stroke-miterlimit:4;stroke-dasharray:none;stroke-opacity:1"
       id="path4514"
       cx="6.3499999"
       cy="290.64999"
       r="6.3499999" />
    <path
       style="fill:#cd96df;fill-opacity:0.99737227;stroke:none;stroke-width:1.74658811;stroke-linecap:round;stroke-linejoin:round;stroke-miterlimit:4;stroke-dasharray:none;stroke-opacity:1"
       clip-path="url(#clipPath4543)"
       d="m 12.7,290.64999 a 6.3499999,6.3499999 0 0 1 -6.3500001,6.35 A 6.3499999,6.3499999 0 0 1 0,290.64999 a 6.3499999,6.3499999 0 0 1 6.3499999,-6.35 6.3499999,6.3499999 0 0 1 6.3500001,6.35 z"
       id="path4514-3"
       inkscape:connector-curvature="0" />
    <g
       id="g4677"
       transform="translate(-11.858347,-4.3214814)">
      <path
         inkscape:connector-curvature="0"
         id="path4526"
         d="m 23.04021,293.20538 a 2.4866811,2.4866811 0 0 0 -0.468992,-0.36467 2.4866811,2.4866811 0 0 1 -0.365116,3.04734 2.4866811,2.4866811 0 0 1 -3.04646,0.366 2.4866811,2.4866811 0 0 0 0.364231,0.46766 2.4866811,2.4866811 0 0 0 3.516337,4.5e-4 2.4866811,2.4866811 0 0 0 0,-3.51678 z"
         style="opacity:1;vector-effect:none;fill:#ffffff;fill-opacity:1;stroke:none;stroke-width:2.5605;stroke-linecap:round;stroke-linejoin:round;stroke-miterlimit:4;stroke-dasharray:none;stroke-dashoffset:0;stroke-opacity:1" />
      <path
         transform="matrix(1.1168881,-0.64483565,0.64483565,1.1168881,-181.34856,-32.958316)"
         inkscape:transform-center-y="0.026873822"
         inkscape:transform-center-x="0.053486226"
         d="m 6.4185145,294.23299 -0.3566249,-0.25394 -0.3566249,0.25394 0.041602,-0.43582 -0.3982267,-0.18187 0.3982267,-0.18188 -0.041602,-0.43582 0.356625,0.25394 0.3566249,-0.25394 -0.041602,0.43582 0.3982267,0.18188 -0.3982267,0.18187 z"
         inkscape:randomized="0"
         inkscape:rounded="0"
         inkscape:flatsided="false"
         sodipodi:arg2="1.5707964"
         sodipodi:arg1="1.0471976"
         sodipodi:r2="0.36375743"
         sodipodi:r1="0.71324986"
         sodipodi:cy="293.6153"
         sodipodi:cx="6.0618896"
         sodipodi:sides="6"
         id="path4561"
         style="opacity:1;vector-effect:none;fill:#ffffff;fill-opacity:1;stroke:none;stroke-width:1.59992;stroke-linecap:round;stroke-linejoin:round;stroke-miterlimit:4;stroke-dasharray:none;stroke-dashoffset:0;stroke-opacity:1"
         sodipodi:type="star" />
      <circle
         r="0.30267826"
         cy="293.25729"
         cx="13.345507"
         id="path4621"
         style="opacity:1;vector-effect:none;fill:#ffffff;fill-opacity:1;stroke:none;stroke-width:2.9895;stroke-linecap:round;stroke-linejoin:round;stroke-miterlimit:4;stroke-dasharray:none;stroke-dashoffset:0;stroke-opacity:1" />
      <circle
         r="0.22649699"
         cy="291.72314"
         cx="21.165125"
         id="path4625-5"
         style="opacity:1;vector-effect:none;fill:#ffffff;fill-opacity:1;stroke:none;stroke-width:2.33875;stroke-linecap:round;stroke-linejoin:round;stroke-miterlimit:4;stroke-dasharray:none;stroke-dashoffset:0;stroke-opacity:1" />
    </g>
    <g
       transform="matrix(0.26458333,0,0,0.26458333,0.21548918,284.09402)"
       id="g25">
      <g
         style="opacity:0.1"
         id="g23">
        <path
           d="m 24,11 c -1.152,0.703 -1.996,1.844 -2.75,2.938 -1.672,2.578 -2.715,5.648 -2.563,8.75 -0.008,0.125 0.047,0.27 -0.094,0.344 -0.508,0.406 -1,0.832 -1.5,1.25 -0.859,0.75 -1.262,1.977 -1.031,3.094 0.281,1.32 0.582,2.617 0.875,3.938 0.129,0.613 0.871,0.996 1.438,0.75 0.367,-0.168 0.629,-0.5 0.938,-0.75 0.641,-0.539 1.219,-1.152 1.875,-1.656 0.805,0.754 1.922,1.238 3.03,1.156 0.961,-0.051 1.871,-0.52 2.563,-1.188 0.91,0.766 1.805,1.578 2.719,2.344 0.551,0.445 1.469,0.102 1.625,-0.594 0.285,-1.348 0.543,-2.676 0.813,-4.03 0.195,-1.074 -0.168,-2.23 -0.969,-2.969 C 30.41,23.889 29.817,23.404 29.25,22.936 29.465,19.721 28.406,16.538 26.656,13.876 25.914,12.802 25.136,11.685 24,11.001 m 0,4.996 c 1.656,0 3,1.344 3,3 0,1.656 -1.344,3 -3,3 -1.656,0 -3,-1.344 -3,-3 0,-1.656 1.344,-3 3,-3"
           id="path17" />
        <path
           d="m 21,32.434 c -0.008,-0.391 0.414,-0.641 0.742,-0.43 1.379,0.711 3.094,0.691 4.473,-0.023 0.313,-0.195 0.773,0.039 0.785,0.418 0.004,0.828 0.004,1.656 0,2.48 0.008,0.406 -0.516,0.66 -0.824,0.41 -0.238,-0.211 -0.453,-0.449 -0.684,-0.668 -0.359,0.707 -0.699,1.426 -1.066,2.129 -0.172,0.336 -0.723,0.336 -0.898,0.008 -0.363,-0.703 -0.703,-1.426 -1.074,-2.133 -0.223,0.223 -0.438,0.457 -0.676,0.668 -0.313,0.254 -0.785,0.113 -0.781,-0.289 -0.004,-0.816 0,-1.754 0,-2.57"
           id="path19" />
        <path
           d="m 26,19 c 0,1.105 -0.895,2 -2,2 -1.105,0 -2,-0.895 -2,-2 0,-1.105 0.895,-2 2,-2 1.105,0 2,0.895 2,2"
           id="path21" />
      </g>
    </g>
    <path
       d="m 6.3009062,286.73986 c -0.3048,0.186 -0.528108,0.48789 -0.727604,0.77734 -0.442384,0.6821 -0.718344,1.49437 -0.678127,2.31511 -0.0021,0.0331 0.01243,0.0714 -0.02487,0.091 -0.134408,0.10742 -0.264583,0.22014 -0.396875,0.33073 -0.227277,0.19844 -0.333904,0.52308 -0.272786,0.81862 0.07435,0.34925 0.153988,0.69242 0.231511,1.04193 0.03413,0.16219 0.230452,0.26353 0.380471,0.19844 0.0971,-0.0445 0.166423,-0.13229 0.248179,-0.19844 0.169598,-0.14261 0.322527,-0.3048 0.496094,-0.43815 0.212989,0.1995 0.508529,0.32756 0.801687,0.30586 0.254265,-0.0135 0.495035,-0.13758 0.678127,-0.31432 0.240771,0.20267 0.477573,0.41751 0.719403,0.62018 0.145785,0.11774 0.388672,0.027 0.429947,-0.15716 0.07541,-0.35666 0.143669,-0.70803 0.215107,-1.06627 0.05159,-0.28417 -0.04445,-0.59003 -0.256382,-0.78555 -0.147902,-0.12912 -0.304799,-0.25744 -0.454819,-0.38127 0.05689,-0.85063 -0.223308,-1.6928 -0.686329,-2.39712 -0.196321,-0.28416 -0.402166,-0.5797 -0.702733,-0.76068 m 0,1.32186 c 0.43815,0 0.79375,0.3556 0.79375,0.79375 0,0.43815 -0.3556,0.79375 -0.79375,0.79375 -0.43815,0 -0.79375,-0.3556 -0.79375,-0.79375 0,-0.43815 0.3556,-0.79375 0.79375,-0.79375"
       style="fill:#25bedf;stroke-width:0.264583;fill-opacity:1"
       id="path27" />
    <path
       d="m 5.5071562,292.41094 c -0.0021,-0.10346 0.109537,-0.1696 0.196321,-0.11378 0.36486,0.18812 0.818621,0.18283 1.183481,-0.006 0.08282,-0.0516 0.204523,0.0103 0.207698,0.1106 0.0011,0.21907 0.0011,0.43815 0,0.65616 0.0021,0.10742 -0.136525,0.17463 -0.218017,0.10848 -0.06297,-0.0558 -0.119856,-0.1188 -0.180975,-0.17674 -0.09499,0.18706 -0.184943,0.3773 -0.282046,0.5633 -0.04551,0.0889 -0.191293,0.0889 -0.237595,0.002 -0.09604,-0.186 -0.186002,-0.37729 -0.284163,-0.56435 -0.059,0.059 -0.115887,0.12091 -0.178858,0.17674 -0.08281,0.0672 -0.207698,0.0299 -0.20664,-0.0765 -0.0011,-0.2159 0,-0.46407 0,-0.67997"
       style="fill:#ff5c7f;stroke-width:0.264583;fill-opacity:1"
       id="path29" />
    <path
       d="m 6.8300732,288.85652 c 0,0.29237 -0.236803,0.52917 -0.529167,0.52917 -0.292365,0 -0.529167,-0.2368 -0.529167,-0.52917 0,-0.29236 0.236802,-0.52916 0.529167,-0.52916 0.292364,0 0.529167,0.2368 0.529167,0.52916"
       style="fill:#cdfbdf;stroke-width:0.264583;fill-opacity:1"
       id="path31" />
  </g>
</svg>
