<?xml version="1.0" encoding="UTF-8" standalone="no"?>
<!-- Created with Inkscape (http://www.inkscape.org/) -->

<svg
   width="48"
   height="48"
   viewBox="0 0 12.7 12.7"
   version="1.1"
   id="svg8"
   inkscape:version="1.1 (c4e8f9ed74, 2021-05-24)"
   sodipodi:docname="gpick.svg"
   xmlns:inkscape="http://www.inkscape.org/namespaces/inkscape"
   xmlns:sodipodi="http://sodipodi.sourceforge.net/DTD/sodipodi-0.dtd"
   xmlns="http://www.w3.org/2000/svg"
   xmlns:svg="http://www.w3.org/2000/svg"
   xmlns:rdf="http://www.w3.org/1999/02/22-rdf-syntax-ns#"
   xmlns:cc="http://creativecommons.org/ns#"
   xmlns:dc="http://purl.org/dc/elements/1.1/">
  <defs
     id="defs2">
    <clipPath
       clipPathUnits="userSpaceOnUse"
       id="clipPath5343">
      <path
         style="fill:#7aafff;fill-opacity:1;stroke:none;stroke-width:2.01045942;stroke-linecap:round;stroke-linejoin:round;stroke-miterlimit:4;stroke-dasharray:none;stroke-opacity:1"
         d="m 3.0688351,285.55677 c -1.613568,1.19596 -2.5662181,3.08478 -2.56883509,5.09323 0,3.50701 2.84299219,6.35 6.35000009,6.35 C 10.357008,297 13.2,294.15701 13.2,290.65 c -0.0022,-0.84296 -0.452078,-2.71271 -0.500228,-2.45359 -0.02424,0.84121 -0.571809,2.35322 -0.602031,2.23138 -0.0026,-0.50621 -0.2876,-1.42626 -0.305098,-1.19509 0.02804,1.40695 -1.48374,3.17677 -2.3076623,3.50038 -0.8310457,0.36942 -1.7371637,0.56412 -2.6117267,0.56534 -0.1736918,2e-5 -1.1686519,-0.13807 -1.6443439,-0.70435 -0.826376,-0.89253 -0.00201,-1.09994 0.4625039,-1.27331 0.5055862,-0.18871 1.030887,-0.30969 1.5203212,-0.42013 0.7456988,-0.16826 0.4710618,-0.52626 0.1049028,-0.6289 -0.9266939,-0.25976 -2.044886,0.33543 -2.8654579,0.30593 -0.848406,-0.0291 -0.804618,-1.69621 -0.1405601,-1.76217 0.7394212,-0.0734 1.6665151,-0.51079 1.461779,-0.65673 -0.8303549,-0.61672 -0.9617369,-0.79081 -1.0595549,-1.16418 -0.1480201,-0.565 0.341282,-1.03557 0.05777,-0.96356 -0.2596169,0.08 -0.4110678,0.15641 -0.5988619,0.25715 -0.1672929,0.0897 -0.293814,0.0546 -0.6751841,0.002 -0.3249449,-0.045 -0.3870058,-0.0557 -0.3755009,-0.25673 0.0115,-0.20097 0.07295,-0.52125 -0.05223,-0.47648 z"
         id="path5345"
         inkscape:connector-curvature="0"
         sodipodi:nodetypes="ccscccccccssscscscssscc" />
    </clipPath>
    <clipPath
       clipPathUnits="userSpaceOnUse"
       id="clipPath4543">
      <path
         style="opacity:1;vector-effect:none;fill:#666666;fill-opacity:1;stroke:none;stroke-width:2.11666656;stroke-linecap:round;stroke-linejoin:round;stroke-miterlimit:4;stroke-dasharray:none;stroke-dashoffset:0;stroke-opacity:1"
         d="m 1.7760088,291.5696 c -1.82613339,0.17434 -3.2940315,0.91934 -3.4903996,2.16451 -0.2629054,1.66729 1.5678591,3.34127 4.0891213,3.73893 1.2172084,0.19119 2.434234,0.053 3.3807423,-0.38387 0.7310194,0.5283 1.669357,0.90078 2.6704721,1.06008 2.5212691,0.39771 4.7783381,-0.6315 5.0412801,-2.2988 0.262905,-1.6673 -1.490667,-1.94329 -4.257163,-2.17938 -2.7664958,-0.23609 -3.6163896,-1.68839 -5.7470448,-2.04575 -0.5660191,-0.0893 -1.1380808,-0.10817 -1.6870084,-0.0557 z"
         id="path4545"
         inkscape:connector-curvature="0"
         sodipodi:nodetypes="cccccczcc" />
    </clipPath>
    <clipPath
       clipPathUnits="userSpaceOnUse"
       id="clipPath5343-3">
      <path
         style="fill:#7aafff;fill-opacity:1;stroke:none;stroke-width:2.01045942;stroke-linecap:round;stroke-linejoin:round;stroke-miterlimit:4;stroke-dasharray:none;stroke-opacity:1"
         d="m 3.0688351,285.55677 c -1.613568,1.19596 -2.5662181,3.08478 -2.56883509,5.09323 0,3.50701 2.84299219,6.35 6.35000009,6.35 C 10.357008,297 13.2,294.15701 13.2,290.65 c -0.0022,-0.84296 -0.452078,-2.71271 -0.500228,-2.45359 -0.02424,0.84121 -0.571809,2.35322 -0.602031,2.23138 -0.0026,-0.50621 -0.2876,-1.42626 -0.305098,-1.19509 0.02804,1.40695 -1.48374,3.17677 -2.3076623,3.50038 -0.8310457,0.36942 -1.7371637,0.56412 -2.6117267,0.56534 -0.1736918,2e-5 -1.1686519,-0.13807 -1.6443439,-0.70435 -0.826376,-0.89253 -0.00201,-1.09994 0.4625039,-1.27331 0.5055862,-0.18871 1.030887,-0.30969 1.5203212,-0.42013 0.7456988,-0.16826 0.4710618,-0.52626 0.1049028,-0.6289 -0.9266939,-0.25976 -2.044886,0.33543 -2.8654579,0.30593 -0.848406,-0.0291 -0.804618,-1.69621 -0.1405601,-1.76217 0.7394212,-0.0734 1.6665151,-0.51079 1.461779,-0.65673 -0.8303549,-0.61672 -0.9617369,-0.79081 -1.0595549,-1.16418 -0.1480201,-0.565 0.341282,-1.03557 0.05777,-0.96356 -0.2596169,0.08 -0.4110678,0.15641 -0.5988619,0.25715 -0.1672929,0.0897 -0.293814,0.0546 -0.6751841,0.002 -0.3249449,-0.045 -0.3870058,-0.0557 -0.3755009,-0.25673 0.0115,-0.20097 0.07295,-0.52125 -0.05223,-0.47648 z"
         id="path5345-3"
         inkscape:connector-curvature="0"
         sodipodi:nodetypes="ccscccccccssscscscssscc" />
    </clipPath>
    <clipPath
       clipPathUnits="userSpaceOnUse"
       id="clipPath4543-8">
      <path
         style="opacity:1;vector-effect:none;fill:#666666;fill-opacity:1;stroke:none;stroke-width:2.11666656;stroke-linecap:round;stroke-linejoin:round;stroke-miterlimit:4;stroke-dasharray:none;stroke-dashoffset:0;stroke-opacity:1"
         d="m 1.7760088,291.5696 c -1.82613339,0.17434 -3.2940315,0.91934 -3.4903996,2.16451 -0.2629054,1.66729 1.5678591,3.34127 4.0891213,3.73893 1.2172084,0.19119 2.434234,0.053 3.3807423,-0.38387 0.7310194,0.5283 1.669357,0.90078 2.6704721,1.06008 2.5212691,0.39771 4.7783381,-0.6315 5.0412801,-2.2988 0.262905,-1.6673 -1.490667,-1.94329 -4.257163,-2.17938 -2.7664958,-0.23609 -3.6163896,-1.68839 -5.7470448,-2.04575 -0.5660191,-0.0893 -1.1380808,-0.10817 -1.6870084,-0.0557 z"
         id="path4545-6"
         inkscape:connector-curvature="0"
         sodipodi:nodetypes="cccccczcc" />
    </clipPath>
    <clipPath
       clipPathUnits="userSpaceOnUse"
       id="clipPath5343-7">
      <path
         style="fill:#7aafff;fill-opacity:1;stroke:none;stroke-width:2.01045942;stroke-linecap:round;stroke-linejoin:round;stroke-miterlimit:4;stroke-dasharray:none;stroke-opacity:1"
         d="m 3.0688351,285.55677 c -1.613568,1.19596 -2.5662181,3.08478 -2.56883509,5.09323 0,3.50701 2.84299219,6.35 6.35000009,6.35 C 10.357008,297 13.2,294.15701 13.2,290.65 c -0.0022,-0.84296 -0.452078,-2.71271 -0.500228,-2.45359 -0.02424,0.84121 -0.571809,2.35322 -0.602031,2.23138 -0.0026,-0.50621 -0.2876,-1.42626 -0.305098,-1.19509 0.02804,1.40695 -1.48374,3.17677 -2.3076623,3.50038 -0.8310457,0.36942 -1.7371637,0.56412 -2.6117267,0.56534 -0.1736918,2e-5 -1.1686519,-0.13807 -1.6443439,-0.70435 -0.826376,-0.89253 -0.00201,-1.09994 0.4625039,-1.27331 0.5055862,-0.18871 1.030887,-0.30969 1.5203212,-0.42013 0.7456988,-0.16826 0.4710618,-0.52626 0.1049028,-0.6289 -0.9266939,-0.25976 -2.044886,0.33543 -2.8654579,0.30593 -0.848406,-0.0291 -0.804618,-1.69621 -0.1405601,-1.76217 0.7394212,-0.0734 1.6665151,-0.51079 1.461779,-0.65673 -0.8303549,-0.61672 -0.9617369,-0.79081 -1.0595549,-1.16418 -0.1480201,-0.565 0.341282,-1.03557 0.05777,-0.96356 -0.2596169,0.08 -0.4110678,0.15641 -0.5988619,0.25715 -0.1672929,0.0897 -0.293814,0.0546 -0.6751841,0.002 -0.3249449,-0.045 -0.3870058,-0.0557 -0.3755009,-0.25673 0.0115,-0.20097 0.07295,-0.52125 -0.05223,-0.47648 z"
         id="path5345-7"
         inkscape:connector-curvature="0"
         sodipodi:nodetypes="ccscccccccssscscscssscc" />
    </clipPath>
  </defs>
  <sodipodi:namedview
     id="base"
     pagecolor="#ffffff"
     bordercolor="#666666"
     borderopacity="1.0"
     inkscape:pageopacity="0.0"
     inkscape:pageshadow="2"
     inkscape:zoom="5.0197215"
     inkscape:cx="4.5819275"
     inkscape:cy="9.960712"
     inkscape:document-units="mm"
     inkscape:current-layer="layer1"
     showgrid="false"
     units="px"
     inkscape:window-width="1920"
     inkscape:window-height="1017"
     inkscape:window-x="0"
     inkscape:window-y="31"
     inkscape:window-maximized="1"
     showguides="false"
     inkscape:pagecheckerboard="0" />
  <metadata
     id="metadata5">
    <rdf:RDF>
      <cc:Work
         rdf:about="">
        <dc:format>image/svg+xml</dc:format>
        <dc:type
           rdf:resource="http://purl.org/dc/dcmitype/StillImage" />
      </cc:Work>
    </rdf:RDF>
  </metadata>
  <g
     inkscape:label="圖層 1"
     inkscape:groupmode="layer"
     id="layer1"
     transform="translate(0,-284.3)">
    <circle
       style="fill:#ffffff;fill-opacity:1;stroke:none;stroke-width:1.74659;stroke-linecap:round;stroke-linejoin:round;stroke-miterlimit:4;stroke-dasharray:none;stroke-opacity:1"
       id="path4514"
       cx="6.3499999"
       cy="290.64999"
       r="6.3499999" />
    <g
       id="g870"
       transform="matrix(0.15068276,0,0,0.15068276,2.6911471,286.93798)">
      <path
         style="opacity:1;fill:#5dc1ae;fill-opacity:1"
         d="m 18.972822,17.620712 5.572822,5.572823 1.393205,1.393205 5.572821,5.572821 5.572823,-5.572821 3.344237,-3.344237 2.228584,-2.228585 c 3.087343,-3.087343 3.087343,-8.058301 0,-11.1456434 L 41.264109,6.4750697 c -3.087344,-3.087343 -8.058301,-3.087343 -11.145644,0 L 27.889881,8.7036539 24.545644,12.04789 Z"
         id="path834" />
      <path
         style="opacity:1;fill:#5dc1ae;fill-opacity:1"
         d="m 31.221576,14.912176 c -1.672939,-1.67294 -4.366681,-1.67294 -6.039727,0 L 11.592488,28.501537 c -1.119564,1.119563 -1.472964,2.691927 -1.094153,4.113856 l -4.9455755,4.945575 c -1.6729392,1.673046 -1.673046,4.366682 2.41e-5,6.039728 1.6729392,1.672939 4.3666828,1.672939 6.0397284,0 l 4.945575,-4.945575 c 1.422036,0.378918 2.994293,0.02562 4.113857,-1.094153 L 34.241305,23.971607 c 1.673046,-1.672939 1.673046,-4.366682 2.9e-5,-6.039621 l -3.019918,-3.019917 z"
         id="path836" />
      <path
         style="fill:#e4e4e4"
         d="m 30.923558,14.04959 c -1.672939,-1.67294 -4.366681,-1.67294 -6.039727,0 L 11.29447,27.638951 c -1.119564,1.119563 -1.4729642,2.691927 -1.094153,4.113856 l -4.9455753,4.945575 c -1.6729392,1.673046 -1.673046,4.366682 2.41e-5,6.039728 1.6729392,1.672939 4.3666824,1.672939 6.0397282,0 l 4.945575,-4.945575 c 1.422036,0.378918 2.994293,0.02562 4.113857,-1.094153 L 33.943287,23.109021 c 1.673046,-1.672939 1.673046,-4.366682 2.9e-5,-6.039621 l -3.019918,-3.019917 z"
         id="path838" />
      <path
         style="opacity:0.2;fill:#ffffff"
         d="m 27.904297,12.794922 c -1.091684,0 -2.183008,0.417436 -3.019531,1.253906 L 11.294922,27.638672 c -0.95605,0.956049 -1.3492082,2.241631 -1.208984,3.482422 0.110831,-0.903373 0.511307,-1.776934 1.208984,-2.47461 L 24.884766,15.056641 c 1.673046,-1.67294 4.366123,-1.67294 6.039062,0 l 3.019531,3.019531 c 0.707606,0.707572 1.096041,1.599256 1.205079,2.517578 0.149422,-1.25349 -0.23917,-2.557574 -1.205079,-3.523438 l -3.019531,-3.021484 c -0.836469,-0.83647 -1.927847,-1.253906 -3.019531,-1.253906 z M 10.068359,31.884766 5.2539062,36.699219 c -0.9658635,0.965925 -1.3544832,2.269946 -1.2050781,3.523437 0.1090467,-0.918323 0.4975056,-1.80996 1.2050781,-2.517578 l 4.9472658,-4.945312 c -0.07644,-0.286939 -0.116283,-0.580766 -0.132813,-0.875 z"
         id="path840" />
      <path
         style="fill:#afe9dd;fill-opacity:1"
         d="m 18,17.461151 5.572822,5.572823 1.393205,1.393205 L 30.538848,30 l 5.572823,-5.572821 3.344237,-3.344237 2.228584,-2.228585 c 3.087343,-3.087343 3.087343,-8.058301 0,-11.1456449 L 40.291287,6.3155072 c -3.087344,-3.087343 -8.058301,-3.087343 -11.145644,0 l -2.228584,2.2285842 -3.344237,3.3442376 z"
         id="path842" />
      <path
         style="opacity:0.2;fill:#ffffff"
         d="M 34.71875,4 C 32.704175,4 30.690156,4.7727347 29.146484,6.3164062 L 26.917969,8.5449219 23.572266,11.888672 18,17.460938 l 0.5,0.5 5.072266,-5.072266 3.345703,-3.3437501 2.228515,-2.2285157 c 3.087343,-3.087343 8.057188,-3.087343 11.144532,0 l 1.392578,1.3925782 c 1.415689,1.4156896 2.173644,3.2276826 2.291015,5.0722656 0.138594,-2.178094 -0.619361,-4.4006111 -2.291015,-6.0722656 L 40.291016,6.3164062 C 38.747344,4.7727347 36.733325,4 34.71875,4 Z"
         id="path844" />
      <path
         style="opacity:0.1"
         d="m 16.989479,12.999561 a 2.9902081,2.9902081 0 0 0 -2.082815,5.135013 l 15.946182,15.946182 a 2.9902081,2.9902081 0 1 0 4.227919,-4.227918 L 19.134583,13.906655 a 2.9902081,2.9902081 0 0 0 -2.145104,-0.907094 z"
         id="path846" />
      <path
         style="fill:#80decc;fill-opacity:1"
         d="m 16.989479,11.999561 a 2.9902081,2.9902081 0 0 0 -2.082815,5.135013 l 15.946182,15.946182 a 2.9902081,2.9902081 0 1 0 4.227919,-4.227918 L 19.134583,12.906655 a 2.9902081,2.9902081 0 0 0 -2.145104,-0.907094 z"
         id="path848" />
      <rect
         style="fill:#5dc1ae;fill-opacity:1"
         width="4.164"
         height="16.655001"
         x="31.860001"
         y="7.9400001"
         rx="2.082"
         ry="2.082"
         transform="rotate(45)"
         id="rect850" />
      <path
         style="opacity:0.2;fill:#ffffff"
         d="M 16.990234,12 A 2.9902081,2.9902081 0 0 0 14.042969,15.478516 2.9902081,2.9902081 0 0 1 16.990234,13 a 2.9902081,2.9902081 0 0 1 2.144532,0.90625 l 15.945312,15.947266 a 2.9902081,2.9902081 0 0 1 0.875,1.664062 2.9902081,2.9902081 0 0 0 -0.875,-2.664062 L 19.134766,12.90625 A 2.9902081,2.9902081 0 0 0 16.990234,12 Z"
         id="path852" />
    </g>
  </g>
</svg>
