<?xml version="1.0" encoding="UTF-8" standalone="no"?>
<!-- Created with Inkscape (http://www.inkscape.org/) -->

<svg
   width="48"
   height="48"
   viewBox="0 0 12.7 12.7"
   version="1.1"
   id="svg8"
   inkscape:version="1.1 (c4e8f9ed74, 2021-05-24)"
   sodipodi:docname="krita.svg"
   xmlns:inkscape="http://www.inkscape.org/namespaces/inkscape"
   xmlns:sodipodi="http://sodipodi.sourceforge.net/DTD/sodipodi-0.dtd"
   xmlns="http://www.w3.org/2000/svg"
   xmlns:svg="http://www.w3.org/2000/svg"
   xmlns:rdf="http://www.w3.org/1999/02/22-rdf-syntax-ns#"
   xmlns:cc="http://creativecommons.org/ns#"
   xmlns:dc="http://purl.org/dc/elements/1.1/">
  <defs
     id="defs2">
    <clipPath
       clipPathUnits="userSpaceOnUse"
       id="clipPath5343">
      <path
         style="fill:#7aafff;fill-opacity:1;stroke:none;stroke-width:2.01045942;stroke-linecap:round;stroke-linejoin:round;stroke-miterlimit:4;stroke-dasharray:none;stroke-opacity:1"
         d="m 3.0688351,285.55677 c -1.613568,1.19596 -2.5662181,3.08478 -2.56883509,5.09323 0,3.50701 2.84299219,6.35 6.35000009,6.35 C 10.357008,297 13.2,294.15701 13.2,290.65 c -0.0022,-0.84296 -0.452078,-2.71271 -0.500228,-2.45359 -0.02424,0.84121 -0.571809,2.35322 -0.602031,2.23138 -0.0026,-0.50621 -0.2876,-1.42626 -0.305098,-1.19509 0.02804,1.40695 -1.48374,3.17677 -2.3076623,3.50038 -0.8310457,0.36942 -1.7371637,0.56412 -2.6117267,0.56534 -0.1736918,2e-5 -1.1686519,-0.13807 -1.6443439,-0.70435 -0.826376,-0.89253 -0.00201,-1.09994 0.4625039,-1.27331 0.5055862,-0.18871 1.030887,-0.30969 1.5203212,-0.42013 0.7456988,-0.16826 0.4710618,-0.52626 0.1049028,-0.6289 -0.9266939,-0.25976 -2.044886,0.33543 -2.8654579,0.30593 -0.848406,-0.0291 -0.804618,-1.69621 -0.1405601,-1.76217 0.7394212,-0.0734 1.6665151,-0.51079 1.461779,-0.65673 -0.8303549,-0.61672 -0.9617369,-0.79081 -1.0595549,-1.16418 -0.1480201,-0.565 0.341282,-1.03557 0.05777,-0.96356 -0.2596169,0.08 -0.4110678,0.15641 -0.5988619,0.25715 -0.1672929,0.0897 -0.293814,0.0546 -0.6751841,0.002 -0.3249449,-0.045 -0.3870058,-0.0557 -0.3755009,-0.25673 0.0115,-0.20097 0.07295,-0.52125 -0.05223,-0.47648 z"
         id="path5345"
         inkscape:connector-curvature="0"
         sodipodi:nodetypes="ccscccccccssscscscssscc" />
    </clipPath>
    <linearGradient
       id="bg"
       x2="0"
       y1="1"
       y2="47"
       gradientUnits="userSpaceOnUse"
       gradientTransform="matrix(0.26458333,0,0,0.26458333,14.985911,281.65659)">
      <stop
         style="stop-color:#f0ce8c"
         offset="0"
         id="stop838" />
      <stop
         style="stop-color:#eec77b"
         offset="1"
         id="stop840" />
    </linearGradient>
    <clipPath
       clipPathUnits="userSpaceOnUse"
       id="clipPath5343-8">
      <path
         style="fill:#7aafff;fill-opacity:1;stroke:none;stroke-width:2.01045942;stroke-linecap:round;stroke-linejoin:round;stroke-miterlimit:4;stroke-dasharray:none;stroke-opacity:1"
         d="m 3.0688351,285.55677 c -1.613568,1.19596 -2.5662181,3.08478 -2.56883509,5.09323 0,3.50701 2.84299219,6.35 6.35000009,6.35 C 10.357008,297 13.2,294.15701 13.2,290.65 c -0.0022,-0.84296 -0.452078,-2.71271 -0.500228,-2.45359 -0.02424,0.84121 -0.571809,2.35322 -0.602031,2.23138 -0.0026,-0.50621 -0.2876,-1.42626 -0.305098,-1.19509 0.02804,1.40695 -1.48374,3.17677 -2.3076623,3.50038 -0.8310457,0.36942 -1.7371637,0.56412 -2.6117267,0.56534 -0.1736918,2e-5 -1.1686519,-0.13807 -1.6443439,-0.70435 -0.826376,-0.89253 -0.00201,-1.09994 0.4625039,-1.27331 0.5055862,-0.18871 1.030887,-0.30969 1.5203212,-0.42013 0.7456988,-0.16826 0.4710618,-0.52626 0.1049028,-0.6289 -0.9266939,-0.25976 -2.044886,0.33543 -2.8654579,0.30593 -0.848406,-0.0291 -0.804618,-1.69621 -0.1405601,-1.76217 0.7394212,-0.0734 1.6665151,-0.51079 1.461779,-0.65673 -0.8303549,-0.61672 -0.9617369,-0.79081 -1.0595549,-1.16418 -0.1480201,-0.565 0.341282,-1.03557 0.05777,-0.96356 -0.2596169,0.08 -0.4110678,0.15641 -0.5988619,0.25715 -0.1672929,0.0897 -0.293814,0.0546 -0.6751841,0.002 -0.3249449,-0.045 -0.3870058,-0.0557 -0.3755009,-0.25673 0.0115,-0.20097 0.07295,-0.52125 -0.05223,-0.47648 z"
         id="path5345-6"
         inkscape:connector-curvature="0"
         sodipodi:nodetypes="ccscccccccssscscscssscc" />
    </clipPath>
    <clipPath
       clipPathUnits="userSpaceOnUse"
       id="clipPath4543">
      <path
         style="opacity:1;vector-effect:none;fill:#666666;fill-opacity:1;stroke:none;stroke-width:2.11666656;stroke-linecap:round;stroke-linejoin:round;stroke-miterlimit:4;stroke-dasharray:none;stroke-dashoffset:0;stroke-opacity:1"
         d="m 1.7760088,291.5696 c -1.82613339,0.17434 -3.2940315,0.91934 -3.4903996,2.16451 -0.2629054,1.66729 1.5678591,3.34127 4.0891213,3.73893 1.2172084,0.19119 2.434234,0.053 3.3807423,-0.38387 0.7310194,0.5283 1.669357,0.90078 2.6704721,1.06008 2.5212691,0.39771 4.7783381,-0.6315 5.0412801,-2.2988 0.262905,-1.6673 -1.490667,-1.94329 -4.257163,-2.17938 -2.7664958,-0.23609 -3.6163896,-1.68839 -5.7470448,-2.04575 -0.5660191,-0.0893 -1.1380808,-0.10817 -1.6870084,-0.0557 z"
         id="path4545"
         inkscape:connector-curvature="0"
         sodipodi:nodetypes="cccccczcc" />
    </clipPath>
  </defs>
  <sodipodi:namedview
     id="base"
     pagecolor="#ffffff"
     bordercolor="#666666"
     borderopacity="1.0"
     inkscape:pageopacity="0.0"
     inkscape:pageshadow="2"
     inkscape:zoom="7.0989584"
     inkscape:cx="38.174614"
     inkscape:cy="32.821716"
     inkscape:document-units="mm"
     inkscape:current-layer="layer1"
     showgrid="false"
     units="px"
     inkscape:window-width="1920"
     inkscape:window-height="1017"
     inkscape:window-x="0"
     inkscape:window-y="31"
     inkscape:window-maximized="1"
     inkscape:pagecheckerboard="0" />
  <metadata
     id="metadata5">
    <rdf:RDF>
      <cc:Work
         rdf:about="">
        <dc:format>image/svg+xml</dc:format>
        <dc:type
           rdf:resource="http://purl.org/dc/dcmitype/StillImage" />
      </cc:Work>
    </rdf:RDF>
  </metadata>
  <g
     inkscape:label="圖層 1"
     inkscape:groupmode="layer"
     id="layer1"
     transform="translate(0,-284.3)">
    <circle
       style="fill:#ffd5d5;fill-opacity:1;stroke:none;stroke-width:1.74658811;stroke-linecap:round;stroke-linejoin:round;stroke-miterlimit:4;stroke-dasharray:none;stroke-opacity:1"
       id="path4514"
       cx="6.3499999"
       cy="290.64999"
       r="6.3499999" />
    <g
       id="g7234"
       transform="translate(-0.0530713,-0.0811561)">
      <path
         d="m 3.8895324,287.42387 c -0.146124,0 -0.264584,0.11846 -0.264584,0.26458 0,0.0731 0.02715,0.1418 0.07751,0.18707 1.059022,0.95186 2.039144,1.91791 3.097477,2.64377 0.349065,0.26458 0.79375,0.34417 1.058334,0.34417 l 0.837168,0.50228 c -0.02775,0.0905 -0.04341,0.18858 -0.04341,0.29147 -0.264583,0.79375 -1.322916,1.32291 -2.38125,1.32291 -2.38125,0 -3.175,-1.32291 -3.439583,-2.64583 0,2.19189 1.776862,3.96875 3.96875,3.96875 1.852083,0 3.4395826,-1.38724 3.4395826,-2.38125 0,-0.63291 -0.3460476,-1.05833 -0.9260406,-1.05833 -0.09345,0 -0.178745,0.0213 -0.2558,0.0574 l -0.670242,-0.58653 c 0,-0.26458 -0.243888,-0.55163 -0.529167,-0.79375 -0.623464,-0.52917 -2.01205,-1.0673 -3.865827,-2.096 -0.03005,-0.0167 -0.0663,-0.0207 -0.102835,-0.0207 z"
         style="opacity:0.51340265;stroke-width:0.264583;paint-order:normal;fill:#ff7d7d;fill-opacity:1"
         id="path855" />
      <path
         d="m 2.5666154,290.0697 c 0,2.19189 1.776862,3.96875 3.96875,3.96875 0.883391,0 1.648883,-0.26458 2.38125,-0.79375 0.79375,-0.52917 -0.351843,-1.23862 -0.529167,-1.85208 -0.264583,0.79375 -1.322916,1.32291 -2.38125,1.32291 -2.38125,0 -3.175,-1.32291 -3.439583,-2.64583 z"
         style="fill:#7aafff;stroke-width:0.264583;paint-order:normal;fill-opacity:1"
         id="path857" />
      <path
         d="m 3.6249484,287.15928 c -0.146124,0 -0.264583,0.11846 -0.264583,0.26459 0,0.0731 0.02715,0.1418 0.07752,0.18706 1.059021,0.95187 2.039144,1.918 3.097477,2.64385 0.349065,0.26459 0.79375,0.34396 1.058333,0.34396 0.146579,0 0.529167,-0.38259 0.529167,-0.52916 0,-0.26459 -0.243888,-0.55163 -0.529167,-0.79375 -0.623464,-0.52917 -2.01205,-1.06717 -3.865827,-2.09587 -0.03005,-0.0167 -0.0663,-0.0207 -0.102835,-0.0207 z"
         style="fill:#4e4e4e;stroke-width:0.264583;paint-order:normal"
         id="path859" />
      <path
         d="m 7.7259904,290.20199 c -0.132292,0.13229 -0.132292,0.26458 -0.132292,0.39688 l 1.322917,0.79375 0.264583,-0.39688 -1.058333,-0.92604 c -0.132292,0 -0.264583,0 -0.396875,0.13229 z"
         style="fill:#ffffff;stroke-width:0.264583;paint-order:normal;fill-opacity:1"
         id="path861" />
      <path
         d="m 9.9749484,291.6572 c 0,0.61727 -0.529166,1.17409 -1.058333,1.5875 0.529167,-0.86101 -0.529167,-1.05833 -0.529167,-1.85208 0,-0.43583 0.264584,-0.79375 0.661459,-0.79375 0.579993,0 0.926041,0.42542 0.926041,1.05833 z"
         style="fill:#424242;stroke-width:0.264583;paint-order:normal"
         id="path863" />
    </g>
  </g>
</svg>
