<?xml version="1.0" encoding="UTF-8" standalone="no"?>
<svg
   viewBox="0 0 48 48"
   version="1.1"
   id="svg29"
   sodipodi:docname="natron.svg"
   inkscape:version="1.1.1 (3bf5ae0d25, 2021-09-20, custom)"
   xmlns:inkscape="http://www.inkscape.org/namespaces/inkscape"
   xmlns:sodipodi="http://sodipodi.sourceforge.net/DTD/sodipodi-0.dtd"
   xmlns="http://www.w3.org/2000/svg"
   xmlns:svg="http://www.w3.org/2000/svg">
  <sodipodi:namedview
     id="namedview31"
     pagecolor="#ffffff"
     bordercolor="#666666"
     borderopacity="1.0"
     inkscape:pageshadow="2"
     inkscape:pageopacity="0.0"
     inkscape:pagecheckerboard="0"
     showgrid="false"
     inkscape:zoom="7.4895833"
     inkscape:cx="50.670375"
     inkscape:cy="28.038943"
     inkscape:window-width="1920"
     inkscape:window-height="1011"
     inkscape:window-x="0"
     inkscape:window-y="35"
     inkscape:window-maximized="1"
     inkscape:current-layer="svg29" />
  <defs
     id="defs7">
    <linearGradient
       id="linearGradient4167"
       x1="23.999"
       y1="47"
       x2="24"
       y2="1"
       gradientUnits="userSpaceOnUse">
      <stop
         style="stop-color:#414141;stop-opacity:1"
         id="stop2" />
      <stop
         offset="1"
         style="stop-color:#4b4b4b;stop-opacity:1"
         id="stop4" />
    </linearGradient>
    <linearGradient
       id="bg"
       x1="1"
       x2="47"
       gradientTransform="rotate(-90,71.2104,22.342058)"
       gradientUnits="userSpaceOnUse">
      <stop
         style="stop-color:#434343"
         offset="0"
         id="stop2-1" />
      <stop
         style="stop-color:#4d4d4d"
         offset="1"
         id="stop4-8" />
    </linearGradient>
    <clipPath
       clipPathUnits="userSpaceOnUse"
       id="clipPath5343">
      <path
         style="fill:#7aafff;fill-opacity:1;stroke:none;stroke-width:2.01045942;stroke-linecap:round;stroke-linejoin:round;stroke-miterlimit:4;stroke-dasharray:none;stroke-opacity:1"
         d="m 3.0688351,285.55677 c -1.613568,1.19596 -2.5662181,3.08478 -2.56883509,5.09323 0,3.50701 2.84299219,6.35 6.35000009,6.35 C 10.357008,297 13.2,294.15701 13.2,290.65 c -0.0022,-0.84296 -0.452078,-2.71271 -0.500228,-2.45359 -0.02424,0.84121 -0.571809,2.35322 -0.602031,2.23138 -0.0026,-0.50621 -0.2876,-1.42626 -0.305098,-1.19509 0.02804,1.40695 -1.48374,3.17677 -2.3076623,3.50038 -0.8310457,0.36942 -1.7371637,0.56412 -2.6117267,0.56534 -0.1736918,2e-5 -1.1686519,-0.13807 -1.6443439,-0.70435 -0.826376,-0.89253 -0.00201,-1.09994 0.4625039,-1.27331 0.5055862,-0.18871 1.030887,-0.30969 1.5203212,-0.42013 0.7456988,-0.16826 0.4710618,-0.52626 0.1049028,-0.6289 -0.9266939,-0.25976 -2.044886,0.33543 -2.8654579,0.30593 -0.848406,-0.0291 -0.804618,-1.69621 -0.1405601,-1.76217 0.7394212,-0.0734 1.6665151,-0.51079 1.461779,-0.65673 -0.8303549,-0.61672 -0.9617369,-0.79081 -1.0595549,-1.16418 -0.1480201,-0.565 0.341282,-1.03557 0.05777,-0.96356 -0.2596169,0.08 -0.4110678,0.15641 -0.5988619,0.25715 -0.1672929,0.0897 -0.293814,0.0546 -0.6751841,0.002 -0.3249449,-0.045 -0.3870058,-0.0557 -0.3755009,-0.25673 0.0115,-0.20097 0.07295,-0.52125 -0.05223,-0.47648 z"
         id="path5345"
         inkscape:connector-curvature="0"
         sodipodi:nodetypes="ccscccccccssscscscssscc" />
    </clipPath>
    <clipPath
       clipPathUnits="userSpaceOnUse"
       id="clipPath4543">
      <path
         style="opacity:1;vector-effect:none;fill:#666666;fill-opacity:1;stroke:none;stroke-width:2.11666656;stroke-linecap:round;stroke-linejoin:round;stroke-miterlimit:4;stroke-dasharray:none;stroke-dashoffset:0;stroke-opacity:1"
         d="m 1.7760088,291.5696 c -1.82613339,0.17434 -3.2940315,0.91934 -3.4903996,2.16451 -0.2629054,1.66729 1.5678591,3.34127 4.0891213,3.73893 1.2172084,0.19119 2.434234,0.053 3.3807423,-0.38387 0.7310194,0.5283 1.669357,0.90078 2.6704721,1.06008 2.5212691,0.39771 4.7783381,-0.6315 5.0412801,-2.2988 0.262905,-1.6673 -1.490667,-1.94329 -4.257163,-2.17938 -2.7664958,-0.23609 -3.6163896,-1.68839 -5.7470448,-2.04575 -0.5660191,-0.0893 -1.1380808,-0.10817 -1.6870084,-0.0557 z"
         id="path4545"
         inkscape:connector-curvature="0"
         sodipodi:nodetypes="cccccczcc" />
    </clipPath>
    <linearGradient
       id="bg-3"
       x1="1"
       x2="47"
       gradientTransform="rotate(-90,23.500499,23.999501)"
       gradientUnits="userSpaceOnUse">
      <stop
         style="stop-color:#393939"
         offset="0"
         id="stop890" />
      <stop
         style="stop-color:#424242"
         offset="1"
         id="stop892" />
    </linearGradient>
  </defs>
  <circle
     style="fill:#737373;fill-opacity:1;stroke:none;stroke-width:6.60128;stroke-linecap:round;stroke-linejoin:round;stroke-miterlimit:4;stroke-dasharray:none;stroke-opacity:1"
     id="path4514"
     cx="24"
     cy="24"
     r="24" />
  <path
     style="vector-effect:none;fill:#cccccc;fill-opacity:1;stroke:none;stroke-width:0.712229;stroke-linecap:round;stroke-linejoin:bevel;stroke-miterlimit:4;stroke-dasharray:none;stroke-dashoffset:15;stroke-opacity:1;paint-order:stroke fill markers"
     id="path4533-7"
     r="1.6866804"
     cy="302.69254"
     cx="9.0659075"
     d="" />
  <path
     style="vector-effect:none;fill:#afe9dd;fill-opacity:1;stroke:none;stroke-width:1.00157;stroke-linecap:round;stroke-linejoin:bevel;stroke-miterlimit:4;stroke-dasharray:none;stroke-dashoffset:15;stroke-opacity:1;paint-order:stroke fill markers"
     id="path4531-9"
     r="4.0322208"
     cy="303.22104"
     cx="-1.3981887"
     d=""
     inkscape:connector-curvature="0" />
  <path
     style="vector-effect:none;fill:#afe9dd;fill-opacity:1;stroke:none;stroke-width:1.00157;stroke-linecap:round;stroke-linejoin:bevel;stroke-miterlimit:4;stroke-dasharray:none;stroke-dashoffset:15;stroke-opacity:1;paint-order:stroke fill markers"
     id="path4531-3-1"
     r="4.0322208"
     cy="302.90338"
     cx="8.8023634"
     d=""
     inkscape:connector-curvature="0" />
  <g
     id="g5015-6-3"
     transform="matrix(2.6725296,2.6725296,-2.6725296,2.6725296,743.1207,-777.35191)"
     style="fill:#666666;fill-opacity:1" />
  <path
     d="m 17.5,35 -6,-11 6,-10 h 7 l 7,10 V 14 l 6,10 -5,11 h -8 l -7,-11 z"
     style="opacity:0.23018649;fill:#000000;fill-rule:evenodd;stroke:none"
     id="path25" />
  <path
     d="m 16.5,34 -6,-11 6,-10 h 7 l 7,10 V 13 l 6,10 -5,11 h -8 l -7,-11 z"
     style="fill:#dafcff;fill-rule:evenodd;stroke:none;fill-opacity:1"
     id="path27" />
</svg>
