<?xml version="1.0" encoding="UTF-8" standalone="no"?>
<!-- Created with Inkscape (http://www.inkscape.org/) -->

<svg
   width="48"
   height="48"
   viewBox="0 0 12.7 12.7"
   version="1.1"
   id="svg8"
   inkscape:version="1.1.1 (3bf5ae0d25, 2021-09-20, custom)"
   sodipodi:docname="xampppanel.svg"
   xmlns:inkscape="http://www.inkscape.org/namespaces/inkscape"
   xmlns:sodipodi="http://sodipodi.sourceforge.net/DTD/sodipodi-0.dtd"
   xmlns="http://www.w3.org/2000/svg"
   xmlns:svg="http://www.w3.org/2000/svg"
   xmlns:rdf="http://www.w3.org/1999/02/22-rdf-syntax-ns#"
   xmlns:cc="http://creativecommons.org/ns#"
   xmlns:dc="http://purl.org/dc/elements/1.1/">
  <defs
     id="defs2">
    <clipPath
       clipPathUnits="userSpaceOnUse"
       id="clipPath5343">
      <path
         style="fill:#7aafff;fill-opacity:1;stroke:none;stroke-width:2.01045942;stroke-linecap:round;stroke-linejoin:round;stroke-miterlimit:4;stroke-dasharray:none;stroke-opacity:1"
         d="m 3.0688351,285.55677 c -1.613568,1.19596 -2.5662181,3.08478 -2.56883509,5.09323 0,3.50701 2.84299219,6.35 6.35000009,6.35 C 10.357008,297 13.2,294.15701 13.2,290.65 c -0.0022,-0.84296 -0.452078,-2.71271 -0.500228,-2.45359 -0.02424,0.84121 -0.571809,2.35322 -0.602031,2.23138 -0.0026,-0.50621 -0.2876,-1.42626 -0.305098,-1.19509 0.02804,1.40695 -1.48374,3.17677 -2.3076623,3.50038 -0.8310457,0.36942 -1.7371637,0.56412 -2.6117267,0.56534 -0.1736918,2e-5 -1.1686519,-0.13807 -1.6443439,-0.70435 -0.826376,-0.89253 -0.00201,-1.09994 0.4625039,-1.27331 0.5055862,-0.18871 1.030887,-0.30969 1.5203212,-0.42013 0.7456988,-0.16826 0.4710618,-0.52626 0.1049028,-0.6289 -0.9266939,-0.25976 -2.044886,0.33543 -2.8654579,0.30593 -0.848406,-0.0291 -0.804618,-1.69621 -0.1405601,-1.76217 0.7394212,-0.0734 1.6665151,-0.51079 1.461779,-0.65673 -0.8303549,-0.61672 -0.9617369,-0.79081 -1.0595549,-1.16418 -0.1480201,-0.565 0.341282,-1.03557 0.05777,-0.96356 -0.2596169,0.08 -0.4110678,0.15641 -0.5988619,0.25715 -0.1672929,0.0897 -0.293814,0.0546 -0.6751841,0.002 -0.3249449,-0.045 -0.3870058,-0.0557 -0.3755009,-0.25673 0.0115,-0.20097 0.07295,-0.52125 -0.05223,-0.47648 z"
         id="path5345"
         inkscape:connector-curvature="0"
         sodipodi:nodetypes="ccscccccccssscscscssscc" />
    </clipPath>
    <linearGradient
       id="linearGradient3764"
       x1="1"
       x2="47"
       gradientUnits="userSpaceOnUse"
       gradientTransform="rotate(-90,23.999998,24)">
      <stop
         style="stop-color:#ce411c;stop-opacity:1"
         id="stop836" />
      <stop
         offset="1"
         style="stop-color:#e0491e;stop-opacity:1"
         id="stop838" />
    </linearGradient>
    <clipPath
       clipPathUnits="userSpaceOnUse"
       id="clipPath5343-4">
      <path
         style="fill:#7aafff;fill-opacity:1;stroke:none;stroke-width:2.01045942;stroke-linecap:round;stroke-linejoin:round;stroke-miterlimit:4;stroke-dasharray:none;stroke-opacity:1"
         d="m 3.0688351,285.55677 c -1.613568,1.19596 -2.5662181,3.08478 -2.56883509,5.09323 0,3.50701 2.84299219,6.35 6.35000009,6.35 C 10.357008,297 13.2,294.15701 13.2,290.65 c -0.0022,-0.84296 -0.452078,-2.71271 -0.500228,-2.45359 -0.02424,0.84121 -0.571809,2.35322 -0.602031,2.23138 -0.0026,-0.50621 -0.2876,-1.42626 -0.305098,-1.19509 0.02804,1.40695 -1.48374,3.17677 -2.3076623,3.50038 -0.8310457,0.36942 -1.7371637,0.56412 -2.6117267,0.56534 -0.1736918,2e-5 -1.1686519,-0.13807 -1.6443439,-0.70435 -0.826376,-0.89253 -0.00201,-1.09994 0.4625039,-1.27331 0.5055862,-0.18871 1.030887,-0.30969 1.5203212,-0.42013 0.7456988,-0.16826 0.4710618,-0.52626 0.1049028,-0.6289 -0.9266939,-0.25976 -2.044886,0.33543 -2.8654579,0.30593 -0.848406,-0.0291 -0.804618,-1.69621 -0.1405601,-1.76217 0.7394212,-0.0734 1.6665151,-0.51079 1.461779,-0.65673 -0.8303549,-0.61672 -0.9617369,-0.79081 -1.0595549,-1.16418 -0.1480201,-0.565 0.341282,-1.03557 0.05777,-0.96356 -0.2596169,0.08 -0.4110678,0.15641 -0.5988619,0.25715 -0.1672929,0.0897 -0.293814,0.0546 -0.6751841,0.002 -0.3249449,-0.045 -0.3870058,-0.0557 -0.3755009,-0.25673 0.0115,-0.20097 0.07295,-0.52125 -0.05223,-0.47648 z"
         id="path5345-8"
         inkscape:connector-curvature="0"
         sodipodi:nodetypes="ccscccccccssscscscssscc" />
    </clipPath>
    <clipPath
       clipPathUnits="userSpaceOnUse"
       id="clipPath4543">
      <path
         style="opacity:1;vector-effect:none;fill:#666666;fill-opacity:1;stroke:none;stroke-width:2.11666656;stroke-linecap:round;stroke-linejoin:round;stroke-miterlimit:4;stroke-dasharray:none;stroke-dashoffset:0;stroke-opacity:1"
         d="m 1.7760088,291.5696 c -1.82613339,0.17434 -3.2940315,0.91934 -3.4903996,2.16451 -0.2629054,1.66729 1.5678591,3.34127 4.0891213,3.73893 1.2172084,0.19119 2.434234,0.053 3.3807423,-0.38387 0.7310194,0.5283 1.669357,0.90078 2.6704721,1.06008 2.5212691,0.39771 4.7783381,-0.6315 5.0412801,-2.2988 0.262905,-1.6673 -1.490667,-1.94329 -4.257163,-2.17938 -2.7664958,-0.23609 -3.6163896,-1.68839 -5.7470448,-2.04575 -0.5660191,-0.0893 -1.1380808,-0.10817 -1.6870084,-0.0557 z"
         id="path4545"
         inkscape:connector-curvature="0"
         sodipodi:nodetypes="cccccczcc" />
    </clipPath>
  </defs>
  <sodipodi:namedview
     id="base"
     pagecolor="#ffffff"
     bordercolor="#666666"
     borderopacity="1.0"
     inkscape:pageopacity="0.0"
     inkscape:pageshadow="2"
     inkscape:zoom="5.6568542"
     inkscape:cx="-2.3864854"
     inkscape:cy="15.998291"
     inkscape:document-units="mm"
     inkscape:current-layer="g843"
     showgrid="false"
     units="px"
     inkscape:window-width="1920"
     inkscape:window-height="1011"
     inkscape:window-x="0"
     inkscape:window-y="35"
     inkscape:window-maximized="1"
     showguides="false"
     inkscape:lockguides="true"
     inkscape:pagecheckerboard="0" />
  <metadata
     id="metadata5">
    <rdf:RDF>
      <cc:Work
         rdf:about="">
        <dc:format>image/svg+xml</dc:format>
        <dc:type
           rdf:resource="http://purl.org/dc/dcmitype/StillImage" />
      </cc:Work>
    </rdf:RDF>
  </metadata>
  <g
     inkscape:label="圖層 1"
     inkscape:groupmode="layer"
     id="layer1"
     transform="translate(0,-284.3)">
    <circle
       style="fill:#bbf4ff;fill-opacity:1;stroke:none;stroke-width:1.74659;stroke-linecap:round;stroke-linejoin:round;stroke-miterlimit:4;stroke-dasharray:none;stroke-opacity:1"
       id="path4514"
       cx="6.3499999"
       cy="290.64999"
       r="6.3499999" />
    <path
       style="opacity:1;vector-effect:none;fill:#1f241c;fill-opacity:1;stroke:none;stroke-width:2.11667;stroke-linecap:round;stroke-linejoin:round;stroke-miterlimit:4;stroke-dasharray:none;stroke-dashoffset:0;stroke-opacity:1"
       id="path4710-8"
       r="0.11880044"
       cy="302.99826"
       cx="-31.337692"
       d=""
       inkscape:connector-curvature="0" />
    <g
       id="g861"
       transform="matrix(0.26458333,0,0,0.26458333,-16.936355,283.98259)">
      <g
         id="g859">
        <g
           transform="translate(1,1)"
           id="g857">
          <g
             style="opacity:0.1"
             id="g855">
            <!-- color: #e0491e -->
          </g>
        </g>
      </g>
    </g>
    <g
       id="g865"
       transform="matrix(0.26458333,0,0,0.26458333,-16.936355,283.98259)">
      <g
         id="g863">
        <!-- color: #e0491e -->
      </g>
    </g>
    <g
       id="g843"
       transform="translate(-0.06361184,-0.0784661)">
      <path
         d="m 4.6938203,287.68575 c -1.022879,-5.3e-4 -1.852083,0.82921 -1.852083,1.85209 2.64e-4,0.44582 0.162454,0.8763 0.455348,1.21232 -0.293159,0.36089 -0.455084,0.82285 -0.455348,1.30122 -2.65e-4,1.0959 0.829204,1.9849 1.852083,1.98437 0.836877,-5.3e-4 1.634596,-0.4572 1.852083,-1.32291 0.225425,0.86624 0.9188982,1.32265 1.7859377,1.32291 1.0583333,2.7e-4 1.918758,-0.88847 1.918229,-1.98437 -2.64e-4,-0.42995 -0.135996,-0.84773 -0.3860269,-1.19116 0.2497669,-0.34316 0.3857629,-0.76067 0.3860269,-1.19009 5.29e-4,-1.09591 -0.8588373,-1.98464 -1.918229,-1.98438 -0.8501062,2.7e-4 -1.5454317,0.47943 -1.7859377,1.32292 -0.198437,-0.83344 -0.995362,-1.32239 -1.852083,-1.32292 z m 0.132292,1.32292 c 0.365389,0 0.661458,0.29607 0.661458,0.66146 v 0.66146 h -0.661458 c -0.36539,0 -0.661459,-0.29607 -0.661459,-0.66146 0,-0.36539 0.296069,-0.66146 0.661459,-0.66146 z m 3.5642016,0 c 0.2981855,-0.005 0.5386917,0.23098 0.5368396,0.52917 -0.00238,0.37041 -0.037042,0.68209 -0.1513416,0.96387 -0.056621,0.13917 -0.1381125,0.26856 -0.236273,0.38047 0.223573,0.0619 0.3876146,0.26432 0.3876146,0.508 v 0.79375 c 0,0.29316 -0.2360083,0.52917 -0.5291666,0.52917 -0.2931584,0 -0.5291667,-0.23601 -0.5291667,-0.52917 v -0.79375 c 0,-0.0344 0.00423,-0.0677 0.010319,-0.10027 -0.4066645,0.12435 -0.8352895,0.10027 -1.3334999,0.10027 -1.058334,0 -1.325563,0 -1.322917,0.78608 0.0034,0.7157 -1.060979,0.7157 -1.058333,0 0.004,-1.13824 0.529166,-1.84441 1.5875,-1.84441 h 0.79375 c 1.3229166,0 1.3255624,0 1.3229166,-0.79375 -5.291e-4,-0.2921 0.2293938,-0.52493 0.5214938,-0.52917 z"
         style="opacity:1;fill:#84d9ff;fill-opacity:1;stroke:none;stroke-width:0.264583"
         id="path871" />
      <path
         d="m 4.4292373,287.42117 c -1.02288,-5.3e-4 -1.852084,0.8292 -1.852084,1.85208 2.65e-4,0.44583 0.162454,0.8763 0.455348,1.21232 -0.293158,0.3609 -0.455083,0.82286 -0.455348,1.30122 -2.64e-4,1.09591 0.829204,1.98491 1.852084,1.98438 0.836877,-5.3e-4 1.634595,-0.4572 1.852083,-1.32292 0.225425,0.86625 0.9188978,1.32266 1.7859374,1.32292 1.0583333,2.6e-4 1.9187583,-0.88847 1.9182291,-1.98438 -2.645e-4,-0.42994 -0.1359958,-0.84772 -0.386027,-1.19115 0.2497666,-0.34316 0.3857625,-0.76068 0.386027,-1.1901 5.292e-4,-1.0959 -0.8588374,-1.98463 -1.9182291,-1.98437 -0.8501062,2.6e-4 -1.5454314,0.47942 -1.7859374,1.32292 -0.198438,-0.83344 -0.995363,-1.32239 -1.852083,-1.32292 z m 0.132291,1.32292 c 0.36539,0 0.661459,0.29607 0.661459,0.66145 v 0.66146 h -0.661459 c -0.365389,0 -0.661458,-0.29607 -0.661458,-0.66146 0,-0.36538 0.296069,-0.66145 0.661458,-0.66145 z m 3.5642023,0 c 0.2981854,-0.005 0.5386917,0.23098 0.5368396,0.52916 -0.00238,0.37042 -0.037042,0.6821 -0.1513417,0.96388 -0.056621,0.13917 -0.1381125,0.26855 -0.2362729,0.38047 0.2235729,0.0619 0.3876146,0.26432 0.3876146,0.508 v 0.79375 c 0,0.29316 -0.2360083,0.52917 -0.5291667,0.52917 -0.2931583,0 -0.5291666,-0.23601 -0.5291666,-0.52917 v -0.79375 c 0,-0.0344 0.00423,-0.0677 0.010319,-0.10028 -0.4066646,0.12436 -0.8352896,0.10028 -1.3335006,0.10028 -1.058333,0 -1.325562,0 -1.322916,0.78608 0.0034,0.7157 -1.060979,0.7157 -1.058334,0 0.004,-1.13824 0.529167,-1.84441 1.5875,-1.84441 h 0.79375 c 1.3229173,0 1.3255631,0 1.3229173,-0.79375 -5.292e-4,-0.2921 0.2293937,-0.52494 0.5214937,-0.52917 z"
         style="fill:#f9f9f9;fill-opacity:1;stroke:none;stroke-width:0.264583"
         id="path873" />
    </g>
  </g>
</svg>
