<?xml version="1.0" encoding="UTF-8" standalone="no"?>
<svg
   viewBox="0 0 16 16"
   version="1.1"
   id="svg18"
   sodipodi:docname="harddrive.svg"
   inkscape:version="1.1 (c4e8f9ed74, 2021-05-24)"
   xmlns:inkscape="http://www.inkscape.org/namespaces/inkscape"
   xmlns:sodipodi="http://sodipodi.sourceforge.net/DTD/sodipodi-0.dtd"
   xmlns="http://www.w3.org/2000/svg"
   xmlns:svg="http://www.w3.org/2000/svg">
  <defs
     id="defs22" />
  <sodipodi:namedview
     id="namedview20"
     pagecolor="#ffffff"
     bordercolor="#999999"
     borderopacity="1"
     inkscape:pageshadow="0"
     inkscape:pageopacity="0"
     inkscape:pagecheckerboard="0"
     showgrid="false"
     inkscape:zoom="41.3125"
     inkscape:cx="7.9878971"
     inkscape:cy="7.9878971"
     inkscape:window-width="1920"
     inkscape:window-height="1017"
     inkscape:window-x="0"
     inkscape:window-y="31"
     inkscape:window-maximized="1"
     inkscape:current-layer="svg18" />
  <rect
     width="12"
     height="16"
     x="2"
     rx="1"
     style="fill:#0be2d7;fill-opacity:1;stroke:none"
     id="rect2" />
  <rect
     width="2"
     height="16"
     x="10.98"
     style="fill:#ffffff;opacity:0.464;fill-opacity:1;stroke:none"
     id="rect4" />
  <path
     d="m 8.02 2.98 c -0.645 -0.007 -1.299 0.14 -1.91 0.463 -1.953 1.035 -2.678 3.453 -1.643 5.406 0.858 1.618 2.66 2.401 4.367 2.036 l -0.744 -2.626 c -0.024 0.001 -0.045 0.014 -0.07 0.014 -0.744 0 -1.348 -0.604 -1.348 -1.348 0 -0.744 0.604 -1.348 1.348 -1.348 0.744 0 1.348 0.604 1.348 1.348 0 0.333 -0.123 0.635 -0.323 0.871 l 1.727 2.064 c 1.252 -1.208 1.614 -3.146 0.758 -4.76 -0.711 -1.342 -2.091 -2.106 -3.51 -2.12 z"
     style="fill:#073642;fill-opacity:1"
     id="path6" />
  <path
     d="m 8.957 9.493 1.5 4.5 1.5 0 0 -1 z"
     style="fill:#073642;fill-opacity:1;stroke:none"
     id="path8" />
  <path
     d="m 4.218 8.161 c 0.358 1.124 1.217 2.056 2.364 2.505 l 0.941 -2.508 c -0.136 -0.054 -0.258 -0.13 -0.375 -0.231 -0.189 -0.163 -0.327 -0.367 -0.401 -0.588 l -2.528 0.822 z"
     style="fill:#70c4c4;opacity:0.495;fill-opacity:1"
     id="path10" />
  <path
     d="m 4.104 6.104 c -0.252 1.152 0.026 2.389 0.795 3.351 l 2.069 -1.701 c -0.091 -0.115 -0.159 -0.242 -0.209 -0.388 -0.082 -0.236 -0.1 -0.482 -0.054 -0.71 l -2.601 -0.552 z"
     style="fill:#26d2a9;opacity:0.246;fill-opacity:1"
     id="path12" />
  <path
     d="m 11.773 5.648 c -0.366 -1.121 -1.232 -2.048 -2.382 -2.488 l -0.923 2.515 c 0.136 0.053 0.259 0.128 0.377 0.229 0.19 0.162 0.33 0.365 0.406 0.585 l 2.522 -0.84 z"
     style="fill:#70c4c4;opacity:0.495;fill-opacity:1"
     id="path14" />
  <path
     d="m 11.902 7.705 c 0.243 -1.154 -0.043 -2.389 -0.819 -3.345 l -2.057 1.716 c 0.092 0.114 0.16 0.241 0.212 0.387 0.084 0.235 0.103 0.481 0.059 0.709 l 2.605 0.533 z"
     style="fill:#26d2a9;opacity:0.19;fill-opacity:1"
     id="path16" />
</svg>
