<?xml version="1.0" encoding="UTF-8" standalone="no"?>
<svg
   viewBox="0 0 22 22"
   version="1.1"
   id="svg18"
   sodipodi:docname="harddrive.svg"
   inkscape:version="1.1 (c4e8f9ed74, 2021-05-24)"
   xmlns:inkscape="http://www.inkscape.org/namespaces/inkscape"
   xmlns:sodipodi="http://sodipodi.sourceforge.net/DTD/sodipodi-0.dtd"
   xmlns="http://www.w3.org/2000/svg"
   xmlns:svg="http://www.w3.org/2000/svg">
  <defs
     id="defs22" />
  <sodipodi:namedview
     id="namedview20"
     pagecolor="#ffffff"
     bordercolor="#999999"
     borderopacity="1"
     inkscape:pageshadow="0"
     inkscape:pageopacity="0"
     inkscape:pagecheckerboard="0"
     showgrid="false"
     inkscape:zoom="30.045455"
     inkscape:cx="10.983359"
     inkscape:cy="10.983359"
     inkscape:window-width="1920"
     inkscape:window-height="1017"
     inkscape:window-x="0"
     inkscape:window-y="31"
     inkscape:window-maximized="1"
     inkscape:current-layer="svg18" />
  <g
     id="g858"
     transform="translate(3,3)">
    <rect
       width="12"
       height="16"
       x="2"
       rx="1"
       style="fill:#0be2d7;fill-opacity:1;stroke:none"
       id="rect2-8"
       y="0" />
    <rect
       width="2"
       height="16"
       x="10.98"
       style="opacity:0.464;fill:#ffffff;fill-opacity:1;stroke:none"
       id="rect4-3"
       y="0" />
    <path
       d="M 8.02,2.98 C 7.375,2.973 6.721,3.12 6.11,3.443 4.157,4.478 3.432,6.896 4.467,8.849 c 0.858,1.618 2.66,2.401 4.367,2.036 L 8.09,8.259 C 8.066,8.26 8.045,8.273 8.02,8.273 7.276,8.273 6.672,7.669 6.672,6.925 c 0,-0.744 0.604,-1.348 1.348,-1.348 0.744,0 1.348,0.604 1.348,1.348 0,0.333 -0.123,0.635 -0.323,0.871 L 10.772,9.86 C 12.024,8.652 12.386,6.714 11.53,5.1 10.819,3.758 9.439,2.994 8.02,2.98 Z"
       style="fill:#073642;fill-opacity:1"
       id="path6-1" />
    <path
       d="m 8.957,9.493 1.5,4.5 h 1.5 v -1 z"
       style="fill:#073642;fill-opacity:1;stroke:none"
       id="path8-8" />
    <path
       d="m 4.218,8.161 c 0.358,1.124 1.217,2.056 2.364,2.505 L 7.523,8.158 C 7.387,8.104 7.265,8.028 7.148,7.927 6.959,7.764 6.821,7.56 6.747,7.339 L 4.219,8.161 Z"
       style="opacity:0.495;fill:#70c4c4;fill-opacity:1"
       id="path10-9" />
    <path
       d="M 4.104,6.104 C 3.852,7.256 4.13,8.493 4.899,9.455 L 6.968,7.754 C 6.877,7.639 6.809,7.512 6.759,7.366 6.677,7.13 6.659,6.884 6.705,6.656 Z"
       style="opacity:0.246;fill:#26d2a9;fill-opacity:1"
       id="path12-6" />
    <path
       d="M 11.773,5.648 C 11.407,4.527 10.541,3.6 9.391,3.16 L 8.468,5.675 c 0.136,0.053 0.259,0.128 0.377,0.229 0.19,0.162 0.33,0.365 0.406,0.585 l 2.522,-0.84 z"
       style="opacity:0.495;fill:#70c4c4;fill-opacity:1"
       id="path14-4" />
    <path
       d="M 11.902,7.705 C 12.145,6.551 11.859,5.316 11.083,4.36 L 9.026,6.076 c 0.092,0.114 0.16,0.241 0.212,0.387 0.084,0.235 0.103,0.481 0.059,0.709 z"
       style="opacity:0.19;fill:#26d2a9;fill-opacity:1"
       id="path16-3" />
  </g>
</svg>
