<?xml version="1.0" encoding="UTF-8" standalone="no"?>
<svg
   width="32"
   height="32"
   viewBox="0 0 32 32"
   version="1.1"
   id="svg12"
   sodipodi:docname="hide-pressed.svg"
   inkscape:version="1.1 (c4e8f9ed74, 2021-05-24)"
   xmlns:inkscape="http://www.inkscape.org/namespaces/inkscape"
   xmlns:sodipodi="http://sodipodi.sourceforge.net/DTD/sodipodi-0.dtd"
   xmlns="http://www.w3.org/2000/svg"
   xmlns:svg="http://www.w3.org/2000/svg">
  <defs
     id="defs16">
    <filter
       inkscape:collect="always"
       style="color-interpolation-filters:sRGB"
       id="filter38942"
       x="-0.045695834"
       y="-0.050548875"
       width="1.0913917"
       height="1.1010977">
      <feGaussianBlur
         inkscape:collect="always"
         stdDeviation="0.22230022"
         id="feGaussianBlur38944" />
    </filter>
  </defs>
  <sodipodi:namedview
     id="namedview14"
     pagecolor="#ffffff"
     bordercolor="#666666"
     borderopacity="1.0"
     inkscape:pageshadow="2"
     inkscape:pageopacity="0.0"
     inkscape:pagecheckerboard="0"
     showgrid="false"
     showguides="true"
     inkscape:guide-bbox="true"
     inkscape:snap-bbox="true"
     inkscape:bbox-paths="true"
     inkscape:bbox-nodes="true"
     inkscape:snap-bbox-edge-midpoints="true"
     inkscape:snap-bbox-midpoints="true"
     inkscape:zoom="21.125"
     inkscape:cx="31.053254"
     inkscape:cy="16.497041"
     inkscape:window-width="1884"
     inkscape:window-height="1048"
     inkscape:window-x="36"
     inkscape:window-y="0"
     inkscape:window-maximized="1"
     inkscape:current-layer="svg12"
     showborder="false">
    <sodipodi:guide
       position="9.4443272,22.095288"
       orientation="0,-1"
       id="guide827" />
    <sodipodi:guide
       position="9.4443272,22.095288"
       orientation="1,0"
       id="guide829" />
  </sodipodi:namedview>
  <rect
     width="32"
     height="31"
     fill="#323f4e"
     id="rect2"
     x="0"
     y="1"
     style="stroke-width:0.984251" />
  <rect
     width="32"
     height="1"
     fill="#F8F8F2"
     fill-opacity="0.1"
     id="rect4"
     style="fill:#79f8f3;fill-opacity:1" />
  <path
     style="color:#000000;fill:#51f6d6;fill-rule:evenodd;stroke-linecap:round;stroke-linejoin:round;-inkscape-stroke:none;fill-opacity:1;filter:url(#filter38942)"
     d="M 11.640625,9.9042969 A 2.1957545,2.1957545 0 0 0 9.7382813,13.197266 l 3.6425777,6.310546 a 2.1955349,2.1955349 0 0 0 0.738282,0.566407 2.1955349,2.1955349 0 0 0 0.06445,0.238281 2.1955349,2.1955349 0 0 0 0.298828,0.03906 2.1955349,2.1955349 0 0 0 0.792969,0.103516 2.1955349,2.1955349 0 0 0 0.8125,-0.105469 2.1955349,2.1955349 0 0 0 0.292968,-0.03906 2.1955349,2.1955349 0 0 0 0.802735,-0.802735 l 3.642578,-6.310546 A 2.1957545,2.1957545 0 0 0 18.925781,9.9042969 Z"
     id="path4967" />
</svg>
